<svg id="visual" viewBox="0 0 960 50" width="960" height="50" xmlns="http://www.w3.org/2000/svg" xmlns:xlink="http://www.w3.org/1999/xlink" version="1.1"><rect x="0" y="0" width="960" height="50" fill="#000000"></rect><path d="M0 43L42 48L83 37L125 37L167 47L209 34L250 41L292 46L334 41L376 42L417 34L459 45L501 37L543 47L584 41L626 44L668 36L710 45L751 43L793 36L835 44L877 34L918 37L960 44L960 0L918 0L877 0L835 0L793 0L751 0L710 0L668 0L626 0L584 0L543 0L501 0L459 0L417 0L376 0L334 0L292 0L250 0L209 0L167 0L125 0L83 0L42 0L0 0Z" fill="#cccccc"></path><path d="M0 40L42 43L83 40L125 40L167 39L209 30L250 37L292 35L334 34L376 30L417 42L459 37L501 39L543 36L584 30L626 33L668 33L710 38L751 37L793 34L835 31L877 44L918 41L960 38L960 0L918 0L877 0L835 0L793 0L751 0L710 0L668 0L626 0L584 0L543 0L501 0L459 0L417 0L376 0L334 0L292 0L250 0L209 0L167 0L125 0L83 0L42 0L0 0Z" fill="#bababa"></path><path d="M0 34L42 29L83 40L125 39L167 32L209 29L250 39L292 39L334 30L376 37L417 36L459 35L501 29L543 38L584 36L626 34L668 32L710 40L751 33L793 36L835 30L877 34L918 39L960 31L960 0L918 0L877 0L835 0L793 0L751 0L710 0L668 0L626 0L584 0L543 0L501 0L459 0L417 0L376 0L334 0L292 0L250 0L209 0L167 0L125 0L83 0L42 0L0 0Z" fill="#a9a9a8"></path><path d="M0 32L42 30L83 32L125 28L167 37L209 35L250 36L292 30L334 33L376 28L417 25L459 30L501 30L543 28L584 34L626 24L668 24L710 32L751 24L793 36L835 28L877 36L918 27L960 36L960 0L918 0L877 0L835 0L793 0L751 0L710 0L668 0L626 0L584 0L543 0L501 0L459 0L417 0L376 0L334 0L292 0L250 0L209 0L167 0L125 0L83 0L42 0L0 0Z" fill="#979797"></path><path d="M0 24L42 21L83 26L125 30L167 26L209 26L250 31L292 22L334 21L376 21L417 33L459 32L501 32L543 29L584 31L626 25L668 28L710 30L751 25L793 23L835 23L877 29L918 26L960 29L960 0L918 0L877 0L835 0L793 0L751 0L710 0L668 0L626 0L584 0L543 0L501 0L459 0L417 0L376 0L334 0L292 0L250 0L209 0L167 0L125 0L83 0L42 0L0 0Z" fill="#878786"></path><path d="M0 28L42 19L83 19L125 25L167 19L209 19L250 29L292 22L334 20L376 18L417 28L459 21L501 23L543 28L584 23L626 28L668 24L710 28L751 26L793 21L835 28L877 28L918 21L960 23L960 0L918 0L877 0L835 0L793 0L751 0L710 0L668 0L626 0L584 0L543 0L501 0L459 0L417 0L376 0L334 0L292 0L250 0L209 0L167 0L125 0L83 0L42 0L0 0Z" fill="#767675"></path><path d="M0 25L42 20L83 15L125 21L167 17L209 26L250 16L292 18L334 16L376 23L417 24L459 23L501 17L543 15L584 18L626 19L668 21L710 24L751 17L793 21L835 25L877 24L918 23L960 20L960 0L918 0L877 0L835 0L793 0L751 0L710 0L668 0L626 0L584 0L543 0L501 0L459 0L417 0L376 0L334 0L292 0L250 0L209 0L167 0L125 0L83 0L42 0L0 0Z" fill="#666665"></path><path d="M0 16L42 14L83 20L125 21L167 21L209 12L250 18L292 20L334 17L376 15L417 22L459 15L501 18L543 20L584 14L626 19L668 22L710 20L751 16L793 20L835 21L877 13L918 19L960 20L960 0L918 0L877 0L835 0L793 0L751 0L710 0L668 0L626 0L584 0L543 0L501 0L459 0L417 0L376 0L334 0L292 0L250 0L209 0L167 0L125 0L83 0L42 0L0 0Z" fill="#565655"></path><path d="M0 14L42 11L83 9L125 11L167 11L209 10L250 12L292 15L334 12L376 12L417 10L459 10L501 16L543 10L584 13L626 18L668 8L710 9L751 16L793 13L835 12L877 14L918 16L960 16L960 0L918 0L877 0L835 0L793 0L751 0L710 0L668 0L626 0L584 0L543 0L501 0L459 0L417 0L376 0L334 0L292 0L250 0L209 0L167 0L125 0L83 0L42 0L0 0Z" fill="#474746"></path><path d="M0 9L42 7L83 7L125 6L167 12L209 13L250 12L292 8L334 12L376 10L417 11L459 11L501 14L543 6L584 5L626 12L668 10L710 14L751 11L793 8L835 11L877 12L918 11L960 14L960 0L918 0L877 0L835 0L793 0L751 0L710 0L668 0L626 0L584 0L543 0L501 0L459 0L417 0L376 0L334 0L292 0L250 0L209 0L167 0L125 0L83 0L42 0L0 0Z" fill="#383837"></path><path d="M0 6L42 7L83 9L125 7L167 10L209 10L250 4L292 4L334 9L376 3L417 5L459 5L501 3L543 7L584 4L626 3L668 3L710 8L751 7L793 4L835 10L877 9L918 9L960 10L960 0L918 0L877 0L835 0L793 0L751 0L710 0L668 0L626 0L584 0L543 0L501 0L459 0L417 0L376 0L334 0L292 0L250 0L209 0L167 0L125 0L83 0L42 0L0 0Z" fill="#2a2a29"></path><path d="M0 2L42 6L83 4L125 0L167 0L209 4L250 0L292 1L334 3L376 3L417 3L459 0L501 4L543 6L584 5L626 5L668 6L710 1L751 1L793 3L835 2L877 0L918 0L960 3L960 0L918 0L877 0L835 0L793 0L751 0L710 0L668 0L626 0L584 0L543 0L501 0L459 0L417 0L376 0L334 0L292 0L250 0L209 0L167 0L125 0L83 0L42 0L0 0Z" fill="#1d1d1c"></path></svg>