<svg id="visual" viewBox="0 0 960 100" width="960" height="100" xmlns="http://www.w3.org/2000/svg" xmlns:xlink="http://www.w3.org/1999/xlink" version="1.1"><rect x="0" y="0" width="960" height="100" fill="#1d1d1c"></rect><path d="M0 79L42 79L42 65L83 65L83 91L125 91L125 75L167 75L167 93L209 93L209 89L250 89L250 67L292 67L292 64L334 64L334 63L376 63L376 79L417 79L417 60L459 60L459 91L501 91L501 82L543 82L543 59L584 59L584 82L626 82L626 72L668 72L668 95L710 95L710 80L751 80L751 70L793 70L793 75L835 75L835 64L877 64L877 87L918 87L918 69L960 69L960 96L960 0L960 0L918 0L918 0L877 0L877 0L835 0L835 0L793 0L793 0L751 0L751 0L710 0L710 0L668 0L668 0L626 0L626 0L584 0L584 0L543 0L543 0L501 0L501 0L459 0L459 0L417 0L417 0L376 0L376 0L334 0L334 0L292 0L292 0L250 0L250 0L209 0L209 0L167 0L167 0L125 0L125 0L83 0L83 0L42 0L42 0L0 0Z" fill="#1d1d1c"></path><path d="M0 49L42 49L42 79L83 79L83 69L125 69L125 81L167 81L167 84L209 84L209 57L250 57L250 83L292 83L292 80L334 80L334 67L376 67L376 84L417 84L417 69L459 69L459 51L501 51L501 81L543 81L543 79L584 79L584 56L626 56L626 72L668 72L668 60L710 60L710 55L751 55L751 72L793 72L793 58L835 58L835 69L877 69L877 83L918 83L918 69L960 69L960 74L960 0L960 0L918 0L918 0L877 0L877 0L835 0L835 0L793 0L793 0L751 0L751 0L710 0L710 0L668 0L668 0L626 0L626 0L584 0L584 0L543 0L543 0L501 0L501 0L459 0L459 0L417 0L417 0L376 0L376 0L334 0L334 0L292 0L292 0L250 0L250 0L209 0L209 0L167 0L167 0L125 0L125 0L83 0L83 0L42 0L42 0L0 0Z" fill="#434342"></path><path d="M0 55L42 55L42 62L83 62L83 49L125 49L125 66L167 66L167 52L209 52L209 41L250 41L250 57L292 57L292 61L334 61L334 61L376 61L376 44L417 44L417 69L459 69L459 69L501 69L501 63L543 63L543 51L584 51L584 53L626 53L626 61L668 61L668 56L710 56L710 70L751 70L751 52L793 52L793 64L835 64L835 56L877 56L877 65L918 65L918 49L960 49L960 60L960 0L960 0L918 0L918 0L877 0L877 0L835 0L835 0L793 0L793 0L751 0L751 0L710 0L710 0L668 0L668 0L626 0L626 0L584 0L584 0L543 0L543 0L501 0L501 0L459 0L459 0L417 0L417 0L376 0L376 0L334 0L334 0L292 0L292 0L250 0L250 0L209 0L209 0L167 0L167 0L125 0L125 0L83 0L83 0L42 0L42 0L0 0Z" fill="#6e6e6d"></path><path d="M0 45L42 45L42 58L83 58L83 57L125 57L125 46L167 46L167 61L209 61L209 54L250 54L250 35L292 35L292 63L334 63L334 38L376 38L376 50L417 50L417 62L459 62L459 33L501 33L501 42L543 42L543 61L584 61L584 35L626 35L626 46L668 46L668 34L710 34L710 39L751 39L751 36L793 36L793 63L835 63L835 41L877 41L877 63L918 63L918 47L960 47L960 60L960 0L960 0L918 0L918 0L877 0L877 0L835 0L835 0L793 0L793 0L751 0L751 0L710 0L710 0L668 0L668 0L626 0L626 0L584 0L584 0L543 0L543 0L501 0L501 0L459 0L459 0L417 0L417 0L376 0L376 0L334 0L334 0L292 0L292 0L250 0L250 0L209 0L209 0L167 0L167 0L125 0L125 0L83 0L83 0L42 0L42 0L0 0Z" fill="#929292"></path><path d="M0 40L42 40L42 40L83 40L83 47L125 47L125 48L167 48L167 44L209 44L209 35L250 35L250 42L292 42L292 29L334 29L334 30L376 30L376 42L417 42L417 28L459 28L459 46L501 46L501 29L543 29L543 35L584 35L584 42L626 42L626 37L668 37L668 42L710 42L710 35L751 35L751 33L793 33L793 30L835 30L835 31L877 31L877 53L918 53L918 27L960 27L960 46L960 0L960 0L918 0L918 0L877 0L877 0L835 0L835 0L793 0L793 0L751 0L751 0L710 0L710 0L668 0L668 0L626 0L626 0L584 0L584 0L543 0L543 0L501 0L501 0L459 0L459 0L417 0L417 0L376 0L376 0L334 0L334 0L292 0L292 0L250 0L250 0L209 0L209 0L167 0L167 0L125 0L125 0L83 0L83 0L42 0L42 0L0 0Z" fill="#929292"></path><path d="M0 40L42 40L42 17L83 17L83 20L125 20L125 27L167 27L167 35L209 35L209 32L250 32L250 36L292 36L292 24L334 24L334 42L376 42L376 28L417 28L417 19L459 19L459 39L501 39L501 32L543 32L543 23L584 23L584 19L626 19L626 31L668 31L668 34L710 34L710 27L751 27L751 22L793 22L793 20L835 20L835 24L877 24L877 17L918 17L918 31L960 31L960 31L960 0L960 0L918 0L918 0L877 0L877 0L835 0L835 0L793 0L793 0L751 0L751 0L710 0L710 0L668 0L668 0L626 0L626 0L584 0L584 0L543 0L543 0L501 0L501 0L459 0L459 0L417 0L417 0L376 0L376 0L334 0L334 0L292 0L292 0L250 0L250 0L209 0L209 0L167 0L167 0L125 0L125 0L83 0L83 0L42 0L42 0L0 0Z" fill="#6e6e6d"></path><path d="M0 12L42 12L42 14L83 14L83 11L125 11L125 13L167 13L167 26L209 26L209 9L250 9L250 28L292 28L292 12L334 12L334 12L376 12L376 14L417 14L417 28L459 28L459 26L501 26L501 21L543 21L543 17L584 17L584 28L626 28L626 22L668 22L668 18L710 18L710 13L751 13L751 18L793 18L793 23L835 23L835 25L877 25L877 30L918 30L918 20L960 20L960 21L960 0L960 0L918 0L918 0L877 0L877 0L835 0L835 0L793 0L793 0L751 0L751 0L710 0L710 0L668 0L668 0L626 0L626 0L584 0L584 0L543 0L543 0L501 0L501 0L459 0L459 0L417 0L417 0L376 0L376 0L334 0L334 0L292 0L292 0L250 0L250 0L209 0L209 0L167 0L167 0L125 0L125 0L83 0L83 0L42 0L42 0L0 0Z" fill="#434342"></path><path d="M0 10L42 10L42 9L83 9L83 14L125 14L125 6L167 6L167 9L209 9L209 11L250 11L250 10L292 10L292 4L334 4L334 8L376 8L376 3L417 3L417 20L459 20L459 6L501 6L501 3L543 3L543 2L584 2L584 8L626 8L626 2L668 2L668 9L710 9L710 12L751 12L751 12L793 12L793 9L835 9L835 2L877 2L877 7L918 7L918 7L960 7L960 16L960 0L960 0L918 0L918 0L877 0L877 0L835 0L835 0L793 0L793 0L751 0L751 0L710 0L710 0L668 0L668 0L626 0L626 0L584 0L584 0L543 0L543 0L501 0L501 0L459 0L459 0L417 0L417 0L376 0L376 0L334 0L334 0L292 0L292 0L250 0L250 0L209 0L209 0L167 0L167 0L125 0L125 0L83 0L83 0L42 0L42 0L0 0Z" fill="#1d1d1c"></path></svg>