<svg id="visual" viewBox="0 0 960 200" width="960" height="200" xmlns="http://www.w3.org/2000/svg" xmlns:xlink="http://www.w3.org/1999/xlink" version="1.1"><rect x="0" y="0" width="960" height="200" fill="#000000"></rect><path d="M0 149L12.3 150.8C24.7 152.7 49.3 156.3 74 157C98.7 157.7 123.3 155.3 148 153.2C172.7 151 197.3 149 221.8 137C246.3 125 270.7 103 295.2 87.3C319.7 71.7 344.3 62.3 369 64C393.7 65.7 418.3 78.3 443 95.3C467.7 112.3 492.3 133.7 517 139.8C541.7 146 566.3 137 591 127.3C615.7 117.7 640.3 107.3 664.8 114.2C689.3 121 713.7 145 738.2 140C762.7 135 787.3 101 812 88.8C836.7 76.7 861.3 86.3 886 85.3C910.7 84.3 935.3 72.7 947.7 66.8L960 61L960 0L947.7 0C935.3 0 910.7 0 886 0C861.3 0 836.7 0 812 0C787.3 0 762.7 0 738.2 0C713.7 0 689.3 0 664.8 0C640.3 0 615.7 0 591 0C566.3 0 541.7 0 517 0C492.3 0 467.7 0 443 0C418.3 0 393.7 0 369 0C344.3 0 319.7 0 295.2 0C270.7 0 246.3 0 221.8 0C197.3 0 172.7 0 148 0C123.3 0 98.7 0 74 0C49.3 0 24.7 0 12.3 0L0 0Z" fill="#cccccc"></path><path d="M0 159L12.3 149.5C24.7 140 49.3 121 74 122.8C98.7 124.7 123.3 147.3 148 159.3C172.7 171.3 197.3 172.7 221.8 171.3C246.3 170 270.7 166 295.2 159.8C319.7 153.7 344.3 145.3 369 125.3C393.7 105.3 418.3 73.7 443 63.2C467.7 52.7 492.3 63.3 517 82C541.7 100.7 566.3 127.3 591 138C615.7 148.7 640.3 143.3 664.8 139C689.3 134.7 713.7 131.3 738.2 123.8C762.7 116.3 787.3 104.7 812 107.8C836.7 111 861.3 129 886 132.8C910.7 136.7 935.3 126.3 947.7 121.2L960 116L960 0L947.7 0C935.3 0 910.7 0 886 0C861.3 0 836.7 0 812 0C787.3 0 762.7 0 738.2 0C713.7 0 689.3 0 664.8 0C640.3 0 615.7 0 591 0C566.3 0 541.7 0 517 0C492.3 0 467.7 0 443 0C418.3 0 393.7 0 369 0C344.3 0 319.7 0 295.2 0C270.7 0 246.3 0 221.8 0C197.3 0 172.7 0 148 0C123.3 0 98.7 0 74 0C49.3 0 24.7 0 12.3 0L0 0Z" fill="#acacac"></path><path d="M0 111L12.3 98.5C24.7 86 49.3 61 74 61.7C98.7 62.3 123.3 88.7 148 105.3C172.7 122 197.3 129 221.8 119.8C246.3 110.7 270.7 85.3 295.2 74.2C319.7 63 344.3 66 369 71.7C393.7 77.3 418.3 85.7 443 98C467.7 110.3 492.3 126.7 517 131.7C541.7 136.7 566.3 130.3 591 115.5C615.7 100.7 640.3 77.3 664.8 65C689.3 52.7 713.7 51.3 738.2 62.8C762.7 74.3 787.3 98.7 812 107.8C836.7 117 861.3 111 886 111C910.7 111 935.3 117 947.7 120L960 123L960 0L947.7 0C935.3 0 910.7 0 886 0C861.3 0 836.7 0 812 0C787.3 0 762.7 0 738.2 0C713.7 0 689.3 0 664.8 0C640.3 0 615.7 0 591 0C566.3 0 541.7 0 517 0C492.3 0 467.7 0 443 0C418.3 0 393.7 0 369 0C344.3 0 319.7 0 295.2 0C270.7 0 246.3 0 221.8 0C197.3 0 172.7 0 148 0C123.3 0 98.7 0 74 0C49.3 0 24.7 0 12.3 0L0 0Z" fill="#8d8d8d"></path><path d="M0 102L12.3 106C24.7 110 49.3 118 74 108.5C98.7 99 123.3 72 148 68.5C172.7 65 197.3 85 221.8 99C246.3 113 270.7 121 295.2 120C319.7 119 344.3 109 369 104.2C393.7 99.3 418.3 99.7 443 96.8C467.7 94 492.3 88 517 81.2C541.7 74.3 566.3 66.7 591 64.7C615.7 62.7 640.3 66.3 664.8 67.3C689.3 68.3 713.7 66.7 738.2 69.8C762.7 73 787.3 81 812 76.8C836.7 72.7 861.3 56.3 886 55.2C910.7 54 935.3 68 947.7 75L960 82L960 0L947.7 0C935.3 0 910.7 0 886 0C861.3 0 836.7 0 812 0C787.3 0 762.7 0 738.2 0C713.7 0 689.3 0 664.8 0C640.3 0 615.7 0 591 0C566.3 0 541.7 0 517 0C492.3 0 467.7 0 443 0C418.3 0 393.7 0 369 0C344.3 0 319.7 0 295.2 0C270.7 0 246.3 0 221.8 0C197.3 0 172.7 0 148 0C123.3 0 98.7 0 74 0C49.3 0 24.7 0 12.3 0L0 0Z" fill="#6f6f6f"></path><path d="M0 57L12.3 61.5C24.7 66 49.3 75 74 82.5C98.7 90 123.3 96 148 94.3C172.7 92.7 197.3 83.3 221.8 69.7C246.3 56 270.7 38 295.2 42C319.7 46 344.3 72 369 74.3C393.7 76.7 418.3 55.3 443 49C467.7 42.7 492.3 51.3 517 55.5C541.7 59.7 566.3 59.3 591 67.5C615.7 75.7 640.3 92.3 664.8 95.3C689.3 98.3 713.7 87.7 738.2 78C762.7 68.3 787.3 59.7 812 65.2C836.7 70.7 861.3 90.3 886 86C910.7 81.7 935.3 53.3 947.7 39.2L960 25L960 0L947.7 0C935.3 0 910.7 0 886 0C861.3 0 836.7 0 812 0C787.3 0 762.7 0 738.2 0C713.7 0 689.3 0 664.8 0C640.3 0 615.7 0 591 0C566.3 0 541.7 0 517 0C492.3 0 467.7 0 443 0C418.3 0 393.7 0 369 0C344.3 0 319.7 0 295.2 0C270.7 0 246.3 0 221.8 0C197.3 0 172.7 0 148 0C123.3 0 98.7 0 74 0C49.3 0 24.7 0 12.3 0L0 0Z" fill="#535353"></path><path d="M0 74L12.3 65.8C24.7 57.7 49.3 41.3 74 41.5C98.7 41.7 123.3 58.3 148 68C172.7 77.7 197.3 80.3 221.8 73.2C246.3 66 270.7 49 295.2 39.3C319.7 29.7 344.3 27.3 369 34.5C393.7 41.7 418.3 58.3 443 62.3C467.7 66.3 492.3 57.7 517 58.3C541.7 59 566.3 69 591 63.3C615.7 57.7 640.3 36.3 664.8 32.7C689.3 29 713.7 43 738.2 46C762.7 49 787.3 41 812 40.3C836.7 39.7 861.3 46.3 886 45.2C910.7 44 935.3 35 947.7 30.5L960 26L960 0L947.7 0C935.3 0 910.7 0 886 0C861.3 0 836.7 0 812 0C787.3 0 762.7 0 738.2 0C713.7 0 689.3 0 664.8 0C640.3 0 615.7 0 591 0C566.3 0 541.7 0 517 0C492.3 0 467.7 0 443 0C418.3 0 393.7 0 369 0C344.3 0 319.7 0 295.2 0C270.7 0 246.3 0 221.8 0C197.3 0 172.7 0 148 0C123.3 0 98.7 0 74 0C49.3 0 24.7 0 12.3 0L0 0Z" fill="#383838"></path><path d="M0 33L12.3 29.8C24.7 26.7 49.3 20.3 74 16.2C98.7 12 123.3 10 148 17C172.7 24 197.3 40 221.8 44.7C246.3 49.3 270.7 42.7 295.2 34.5C319.7 26.3 344.3 16.7 369 16C393.7 15.3 418.3 23.7 443 29C467.7 34.3 492.3 36.7 517 41.7C541.7 46.7 566.3 54.3 591 51.7C615.7 49 640.3 36 664.8 28.2C689.3 20.3 713.7 17.7 738.2 21.8C762.7 26 787.3 37 812 37.3C836.7 37.7 861.3 27.3 886 28.2C910.7 29 935.3 41 947.7 47L960 53L960 0L947.7 0C935.3 0 910.7 0 886 0C861.3 0 836.7 0 812 0C787.3 0 762.7 0 738.2 0C713.7 0 689.3 0 664.8 0C640.3 0 615.7 0 591 0C566.3 0 541.7 0 517 0C492.3 0 467.7 0 443 0C418.3 0 393.7 0 369 0C344.3 0 319.7 0 295.2 0C270.7 0 246.3 0 221.8 0C197.3 0 172.7 0 148 0C123.3 0 98.7 0 74 0C49.3 0 24.7 0 12.3 0L0 0Z" fill="#1f1f1f"></path><path d="M0 4L12.3 6C24.7 8 49.3 12 74 14.2C98.7 16.3 123.3 16.7 148 14C172.7 11.3 197.3 5.7 221.8 8.5C246.3 11.3 270.7 22.7 295.2 25C319.7 27.3 344.3 20.7 369 21.2C393.7 21.7 418.3 29.3 443 31.2C467.7 33 492.3 29 517 27.3C541.7 25.7 566.3 26.3 591 26C615.7 25.7 640.3 24.3 664.8 26.7C689.3 29 713.7 35 738.2 31.8C762.7 28.7 787.3 16.3 812 10.7C836.7 5 861.3 6 886 8C910.7 10 935.3 13 947.7 14.5L960 16L960 0L947.7 0C935.3 0 910.7 0 886 0C861.3 0 836.7 0 812 0C787.3 0 762.7 0 738.2 0C713.7 0 689.3 0 664.8 0C640.3 0 615.7 0 591 0C566.3 0 541.7 0 517 0C492.3 0 467.7 0 443 0C418.3 0 393.7 0 369 0C344.3 0 319.7 0 295.2 0C270.7 0 246.3 0 221.8 0C197.3 0 172.7 0 148 0C123.3 0 98.7 0 74 0C49.3 0 24.7 0 12.3 0L0 0Z" fill="#000000"></path></svg>