<svg id="visual" viewBox="0 0 1920 1020" width="1920" height="1020" xmlns="http://www.w3.org/2000/svg" xmlns:xlink="http://www.w3.org/1999/xlink" version="1.1"><g stroke-width="5" stroke-linejoin="bevel"><path d="M851 470.1L807 557.9L894 660.9Z" fill="#4c5158" stroke="#000000"></path><path d="M723 725.6L906 732.6L894 660.9Z" fill="#3f454c" stroke="#000000"></path><path d="M906 732.6L1087 659.6L894 660.9Z" fill="#828589" stroke="#000000"></path><path d="M894 660.9L1135 569.9L851 470.1Z" fill="#74787c" stroke="#000000"></path><path d="M1049 390.1L893 347.1L851 470.1Z" fill="#cccccc" stroke="#000000"></path><path d="M851 470.1L717 321.4L807 557.9Z" fill="#cccccc" stroke="#000000"></path><path d="M1135 569.9L1049 390.1L851 470.1Z" fill="#3f454c" stroke="#000000"></path><path d="M1087 659.6L1135 569.9L894 660.9Z" fill="#aeafb1" stroke="#000000"></path><path d="M621 655.9L723 725.6L807 557.9Z" fill="#9fa1a3" stroke="#000000"></path><path d="M807 557.9L723 725.6L894 660.9Z" fill="#4c5158" stroke="#000000"></path><path d="M723 725.6L839 801.6L906 732.6Z" fill="#828589" stroke="#000000"></path><path d="M906 732.6L1059 807.3L1087 659.6Z" fill="#bdbdbe" stroke="#000000"></path><path d="M839 801.6L904 836.3L906 732.6Z" fill="#4c5158" stroke="#000000"></path><path d="M904 836.3L1059 807.3L906 732.6Z" fill="#666b70" stroke="#000000"></path><path d="M1087 659.6L1239 654.9L1135 569.9Z" fill="#4c5158" stroke="#000000"></path><path d="M893 347.1L717 321.4L851 470.1Z" fill="#74787c" stroke="#000000"></path><path d="M556 404.1L621 655.9L807 557.9Z" fill="#4c5158" stroke="#000000"></path><path d="M1238 315.4L1066 277.4L1049 390.1Z" fill="#74787c" stroke="#000000"></path><path d="M1049 390.1L1066 277.4L893 347.1Z" fill="#666b70" stroke="#000000"></path><path d="M893 347.1L875 238.4L717 321.4Z" fill="#bdbdbe" stroke="#000000"></path><path d="M1044 218.7L875 238.4L893 347.1Z" fill="#cccccc" stroke="#000000"></path><path d="M1252 804.3L1239 654.9L1087 659.6Z" fill="#9fa1a3" stroke="#000000"></path><path d="M1135 569.9L1238 315.4L1049 390.1Z" fill="#666b70" stroke="#000000"></path><path d="M839 801.6L798 891.3L904 836.3Z" fill="#666b70" stroke="#000000"></path><path d="M904 836.3L1045 1020L1059 807.3Z" fill="#aeafb1" stroke="#000000"></path><path d="M723 725.6L798 891.3L839 801.6Z" fill="#9fa1a3" stroke="#000000"></path><path d="M635 922.3L798 891.3L723 725.6Z" fill="#595e64" stroke="#000000"></path><path d="M1238 315.4L1044 218.7L1066 277.4Z" fill="#aeafb1" stroke="#000000"></path><path d="M1066 277.4L1044 218.7L893 347.1Z" fill="#595e64" stroke="#000000"></path><path d="M667 239.4L556 404.1L717 321.4Z" fill="#909396" stroke="#000000"></path><path d="M717 321.4L556 404.1L807 557.9Z" fill="#4c5158" stroke="#000000"></path><path d="M1239 654.9L1301 526.1L1135 569.9Z" fill="#cccccc" stroke="#000000"></path><path d="M651 166.7L667 239.4L875 238.4Z" fill="#828589" stroke="#000000"></path><path d="M875 238.4L667 239.4L717 321.4Z" fill="#aeafb1" stroke="#000000"></path><path d="M1301 526.1L1238 315.4L1135 569.9Z" fill="#aeafb1" stroke="#000000"></path><path d="M1059 807.3L1252 804.3L1087 659.6Z" fill="#bdbdbe" stroke="#000000"></path><path d="M1239 654.9L1354 653.9L1301 526.1Z" fill="#828589" stroke="#000000"></path><path d="M1194 1020L1252 804.3L1059 807.3Z" fill="#595e64" stroke="#000000"></path><path d="M1252 804.3L1354 653.9L1239 654.9Z" fill="#828589" stroke="#000000"></path><path d="M1448 320.4L1303 150.7L1238 315.4Z" fill="#cccccc" stroke="#000000"></path><path d="M446 508.9L515 785.6L621 655.9Z" fill="#74787c" stroke="#000000"></path><path d="M621 655.9L515 785.6L723 725.6Z" fill="#666b70" stroke="#000000"></path><path d="M515 785.6L635 922.3L723 725.6Z" fill="#4c5158" stroke="#000000"></path><path d="M635 922.3L883 1020L798 891.3Z" fill="#3f454c" stroke="#000000"></path><path d="M798 891.3L883 1020L904 836.3Z" fill="#595e64" stroke="#000000"></path><path d="M667 239.4L486 370.4L556 404.1Z" fill="#909396" stroke="#000000"></path><path d="M556 404.1L446 508.9L621 655.9Z" fill="#cccccc" stroke="#000000"></path><path d="M808 56.7L651 166.7L875 238.4Z" fill="#828589" stroke="#000000"></path><path d="M667 239.4L651 166.7L486 370.4Z" fill="#909396" stroke="#000000"></path><path d="M486 370.4L446 508.9L556 404.1Z" fill="#595e64" stroke="#000000"></path><path d="M883 1020L1045 1020L904 836.3Z" fill="#595e64" stroke="#000000"></path><path d="M1045 1020L1057 1020L1059 807.3Z" fill="#74787c" stroke="#000000"></path><path d="M1132 0L942 64.7L1044 218.7Z" fill="#bdbdbe" stroke="#000000"></path><path d="M1044 218.7L942 64.7L875 238.4Z" fill="#828589" stroke="#000000"></path><path d="M1194 1020L1353 804.6L1252 804.3Z" fill="#aeafb1" stroke="#000000"></path><path d="M1252 804.3L1353 804.6L1354 653.9Z" fill="#4c5158" stroke="#000000"></path><path d="M942 64.7L808 56.7L875 238.4Z" fill="#909396" stroke="#000000"></path><path d="M394 401.1L380 508.9L446 508.9Z" fill="#3f454c" stroke="#000000"></path><path d="M446 508.9L421 793.3L515 785.6Z" fill="#bdbdbe" stroke="#000000"></path><path d="M280 273.4L394 401.1L486 370.4Z" fill="#595e64" stroke="#000000"></path><path d="M486 370.4L394 401.1L446 508.9Z" fill="#4c5158" stroke="#000000"></path><path d="M1057 1020L1194 1020L1059 807.3Z" fill="#3f454c" stroke="#000000"></path><path d="M380 508.9L421 793.3L446 508.9Z" fill="#4c5158" stroke="#000000"></path><path d="M408 911.3L584 1020L635 922.3Z" fill="#aeafb1" stroke="#000000"></path><path d="M1132 0L914 0L942 64.7Z" fill="#cccccc" stroke="#000000"></path><path d="M942 64.7L914 0L808 56.7Z" fill="#aeafb1" stroke="#000000"></path><path d="M914 0L834 0L808 56.7Z" fill="#3f454c" stroke="#000000"></path><path d="M616 0L550 57.7L651 166.7Z" fill="#cccccc" stroke="#000000"></path><path d="M1448 320.4L1238 315.4L1301 526.1Z" fill="#828589" stroke="#000000"></path><path d="M1238 315.4L1303 150.7L1044 218.7Z" fill="#cccccc" stroke="#000000"></path><path d="M408 911.3L635 922.3L515 785.6Z" fill="#74787c" stroke="#000000"></path><path d="M635 922.3L584 1020L883 1020Z" fill="#9fa1a3" stroke="#000000"></path><path d="M1501 473.1L1448 320.4L1301 526.1Z" fill="#828589" stroke="#000000"></path><path d="M1501 473.1L1301 526.1L1354 653.9Z" fill="#3f454c" stroke="#000000"></path><path d="M1557 520.9L1501 473.1L1354 653.9Z" fill="#aeafb1" stroke="#000000"></path><path d="M1303 150.7L1132 0L1044 218.7Z" fill="#828589" stroke="#000000"></path><path d="M1413 1020L1448 830.3L1353 804.6Z" fill="#bdbdbe" stroke="#000000"></path><path d="M1353 804.6L1475 790.6L1354 653.9Z" fill="#cccccc" stroke="#000000"></path><path d="M1448 830.3L1475 790.6L1353 804.6Z" fill="#595e64" stroke="#000000"></path><path d="M616 0L651 166.7L808 56.7Z" fill="#595e64" stroke="#000000"></path><path d="M651 166.7L550 57.7L486 370.4Z" fill="#cccccc" stroke="#000000"></path><path d="M421 793.3L408 911.3L515 785.6Z" fill="#9fa1a3" stroke="#000000"></path><path d="M285 733.6L408 911.3L421 793.3Z" fill="#9fa1a3" stroke="#000000"></path><path d="M834 0L616 0L808 56.7Z" fill="#909396" stroke="#000000"></path><path d="M1303 150.7L1213 0L1132 0Z" fill="#666b70" stroke="#000000"></path><path d="M1376 100.7L1213 0L1303 150.7Z" fill="#9fa1a3" stroke="#000000"></path><path d="M1475 790.6L1557 520.9L1354 653.9Z" fill="#bdbdbe" stroke="#000000"></path><path d="M1501 473.1L1565 365.4L1448 320.4Z" fill="#909396" stroke="#000000"></path><path d="M1654 145.7L1376 100.7L1448 320.4Z" fill="#74787c" stroke="#000000"></path><path d="M1448 320.4L1376 100.7L1303 150.7Z" fill="#828589" stroke="#000000"></path><path d="M248 479.1L285 733.6L380 508.9Z" fill="#4c5158" stroke="#000000"></path><path d="M380 508.9L285 733.6L421 793.3Z" fill="#595e64" stroke="#000000"></path><path d="M230 317.4L248 479.1L394 401.1Z" fill="#9fa1a3" stroke="#000000"></path><path d="M394 401.1L248 479.1L380 508.9Z" fill="#666b70" stroke="#000000"></path><path d="M292 1020L423 1020L408 911.3Z" fill="#595e64" stroke="#000000"></path><path d="M408 911.3L423 1020L584 1020Z" fill="#3f454c" stroke="#000000"></path><path d="M1595 459.1L1565 365.4L1501 473.1Z" fill="#666b70" stroke="#000000"></path><path d="M1622 937.3L1632 796.6L1475 790.6Z" fill="#3f454c" stroke="#000000"></path><path d="M1731 491.1L1595 459.1L1557 520.9Z" fill="#aeafb1" stroke="#000000"></path><path d="M1194 1020L1413 1020L1353 804.6Z" fill="#909396" stroke="#000000"></path><path d="M1632 796.6L1557 520.9L1475 790.6Z" fill="#828589" stroke="#000000"></path><path d="M1557 520.9L1595 459.1L1501 473.1Z" fill="#aeafb1" stroke="#000000"></path><path d="M340 155.7L280 273.4L486 370.4Z" fill="#aeafb1" stroke="#000000"></path><path d="M340 155.7L486 370.4L550 57.7Z" fill="#9fa1a3" stroke="#000000"></path><path d="M483 0L340 155.7L550 57.7Z" fill="#909396" stroke="#000000"></path><path d="M616 0L483 0L550 57.7Z" fill="#aeafb1" stroke="#000000"></path><path d="M230 317.4L207 500.9L248 479.1Z" fill="#cccccc" stroke="#000000"></path><path d="M248 479.1L207 500.9L285 733.6Z" fill="#74787c" stroke="#000000"></path><path d="M179 84.7L230 317.4L280 273.4Z" fill="#74787c" stroke="#000000"></path><path d="M280 273.4L230 317.4L394 401.1Z" fill="#cccccc" stroke="#000000"></path><path d="M1654 145.7L1420 0L1376 100.7Z" fill="#9fa1a3" stroke="#000000"></path><path d="M1376 100.7L1420 0L1213 0Z" fill="#595e64" stroke="#000000"></path><path d="M1622 937.3L1475 790.6L1448 830.3Z" fill="#3f454c" stroke="#000000"></path><path d="M246 1020L292 1020L159 917.3Z" fill="#666b70" stroke="#000000"></path><path d="M292 1020L408 911.3L159 917.3Z" fill="#9fa1a3" stroke="#000000"></path><path d="M0 565.9L154 725.6L207 500.9Z" fill="#4c5158" stroke="#000000"></path><path d="M207 500.9L154 725.6L285 733.6Z" fill="#666b70" stroke="#000000"></path><path d="M1413 1020L1568 1020L1448 830.3Z" fill="#cccccc" stroke="#000000"></path><path d="M1568 1020L1622 937.3L1448 830.3Z" fill="#aeafb1" stroke="#000000"></path><path d="M159 917.3L408 911.3L285 733.6Z" fill="#909396" stroke="#000000"></path><path d="M1760 620.9L1731 491.1L1557 520.9Z" fill="#4c5158" stroke="#000000"></path><path d="M1595 459.1L1731 491.1L1565 365.4Z" fill="#cccccc" stroke="#000000"></path><path d="M1565 365.4L1679 219.4L1448 320.4Z" fill="#909396" stroke="#000000"></path><path d="M1760 620.9L1557 520.9L1632 796.6Z" fill="#aeafb1" stroke="#000000"></path><path d="M154 725.6L159 917.3L285 733.6Z" fill="#828589" stroke="#000000"></path><path d="M1731 491.1L1679 219.4L1565 365.4Z" fill="#595e64" stroke="#000000"></path><path d="M0 353.1L80 414.1L0 343.4Z" fill="#4c5158" stroke="#000000"></path><path d="M230 317.4L80 414.1L207 500.9Z" fill="#595e64" stroke="#000000"></path><path d="M154 725.6L0 831.3L159 917.3Z" fill="#aeafb1" stroke="#000000"></path><path d="M179 84.7L280 273.4L340 155.7Z" fill="#74787c" stroke="#000000"></path><path d="M1679 219.4L1654 145.7L1448 320.4Z" fill="#74787c" stroke="#000000"></path><path d="M1772 689.6L1760 620.9L1632 796.6Z" fill="#828589" stroke="#000000"></path><path d="M1814 60.7L1654 145.7L1679 219.4Z" fill="#74787c" stroke="#000000"></path><path d="M1736 924.3L1772 689.6L1632 796.6Z" fill="#aeafb1" stroke="#000000"></path><path d="M231 0L179 84.7L340 155.7Z" fill="#666b70" stroke="#000000"></path><path d="M483 0L231 0L340 155.7Z" fill="#cccccc" stroke="#000000"></path><path d="M1766 1020L1736 924.3L1622 937.3Z" fill="#828589" stroke="#000000"></path><path d="M1622 937.3L1736 924.3L1632 796.6Z" fill="#bdbdbe" stroke="#000000"></path><path d="M1734 0L1654 145.7L1814 60.7Z" fill="#aeafb1" stroke="#000000"></path><path d="M1734 0L1636 0L1654 145.7Z" fill="#595e64" stroke="#000000"></path><path d="M1654 145.7L1636 0L1420 0Z" fill="#909396" stroke="#000000"></path><path d="M0 353.1L0 565.9L80 414.1Z" fill="#3f454c" stroke="#000000"></path><path d="M80 414.1L0 565.9L207 500.9Z" fill="#828589" stroke="#000000"></path><path d="M0 565.9L0 707.6L154 725.6Z" fill="#828589" stroke="#000000"></path><path d="M0 343.4L230 317.4L179 84.7Z" fill="#4c5158" stroke="#000000"></path><path d="M0 343.4L80 414.1L230 317.4Z" fill="#bdbdbe" stroke="#000000"></path><path d="M0 101.7L0 343.4L179 84.7Z" fill="#4c5158" stroke="#000000"></path><path d="M231 0L155 0L179 84.7Z" fill="#9fa1a3" stroke="#000000"></path><path d="M0 707.6L0 831.3L154 725.6Z" fill="#666b70" stroke="#000000"></path><path d="M159 917.3L0 1020L246 1020Z" fill="#3f454c" stroke="#000000"></path><path d="M1568 1020L1766 1020L1622 937.3Z" fill="#828589" stroke="#000000"></path><path d="M1920 676.6L1760 620.9L1772 689.6Z" fill="#828589" stroke="#000000"></path><path d="M1920 351.1L1679 219.4L1731 491.1Z" fill="#cccccc" stroke="#000000"></path><path d="M1920 583.9L1731 491.1L1760 620.9Z" fill="#909396" stroke="#000000"></path><path d="M1920 676.6L1772 689.6L1920 845.3Z" fill="#3f454c" stroke="#000000"></path><path d="M1920 676.6L1920 583.9L1760 620.9Z" fill="#4c5158" stroke="#000000"></path><path d="M1920 845.3L1772 689.6L1736 924.3Z" fill="#bdbdbe" stroke="#000000"></path><path d="M155 0L0 101.7L179 84.7Z" fill="#aeafb1" stroke="#000000"></path><path d="M0 831.3L0 1020L159 917.3Z" fill="#4c5158" stroke="#000000"></path><path d="M1920 583.9L1920 351.1L1731 491.1Z" fill="#828589" stroke="#000000"></path><path d="M1920 286.4L1814 60.7L1679 219.4Z" fill="#cccccc" stroke="#000000"></path><path d="M1920 351.1L1920 286.4L1679 219.4Z" fill="#595e64" stroke="#000000"></path><path d="M1920 1020L1920 845.3L1736 924.3Z" fill="#aeafb1" stroke="#000000"></path><path d="M155 0L0 0L0 101.7Z" fill="#595e64" stroke="#000000"></path><path d="M1766 1020L1920 1020L1736 924.3Z" fill="#595e64" stroke="#000000"></path><path d="M1920 286.4L1920 57.7L1814 60.7Z" fill="#74787c" stroke="#000000"></path><path d="M1814 60.7L1920 0L1734 0Z" fill="#828589" stroke="#000000"></path><path d="M1920 57.7L1920 0L1814 60.7Z" fill="#828589" stroke="#000000"></path></g></svg>